<svg width="23" height="21" viewBox="0 0 23 21" fill="none" xmlns="http://www.w3.org/2000/svg">
<path d="M19 8C20.3144 8.07267 15.6181 12.5226 16.5 13.5C17.3819 14.4774 9.56651 16.7842 9.50407 18.0991C9.50407 21.1711 20.5 11 18.5 12.5C15.988 14.743 16.938 13.217 16.5 13.5C16.023 13.191 19.66 14.929 17.5 13C14.944 10.728 22.0041 10.2661 22.0041 7.22109C21.9416 5.90614 9.5052 4.92149 10.3871 3.94409C11.2689 2.96669 1.9689 7.67179 3.28333 7.59912C4.01148 7.57705 12.3599 8.2589 13.0041 8.59912C13.6482 8.93934 9.99479 3.33026 10.3871 3.94409C11.2271 5.11909 11.3671 5.70709 11.5071 5.70709C11.6471 5.70709 11.7851 5.11909 12.6171 3.94109C13.0071 3.32442 6.55548 10.4392 7.20107 10.0991C7.84666 9.75904 18.2708 7.97291 19 8ZM16.2961 0.00309361C15.388 -0.0259796 14.4851 0.150177 13.6545 0.518445C12.824 0.886713 12.0872 1.4376 11.4991 2.13009C10.9114 1.43962 10.1762 0.890001 9.34762 0.521846C8.51905 0.15369 7.61835 -0.0235932 6.71207 0.00309361C4.86694 0.0752455 3.12545 0.875077 1.86841 2.22769C0.611371 3.5803 -0.0589338 5.37563 0.00407174 7.22109C0.00407174 10.8311 2.55407 13.0481 5.01907 15.1911C5.30207 15.4371 5.58807 15.6851 5.87207 15.9381L6.89907 16.8561C8.01911 17.9219 9.19334 18.9292 10.4171 19.8741C10.7409 20.0837 11.1183 20.1953 11.5041 20.1953C11.8898 20.1953 12.2673 20.0837 12.5911 19.8741C13.8538 18.9004 15.0641 17.8606 16.2171 16.7591L17.1391 15.9351C17.4321 15.6751 17.7291 15.4161 18.0241 15.1611C20.3581 13.1361 23.0041 10.8411 23.0041 7.22109C23.0671 5.37563 22.3968 3.5803 21.1397 2.22769C19.8827 0.875077 18.1412 0.0752455 16.2961 0.00309361Z" fill="black"/>
</svg>
